<svg xmlns="http://www.w3.org/2000/svg" viewBox="0 0 204.48 215.61"><defs><style>.a{fill:none;}.a,.b{stroke:#000000;stroke-miterlimit:10;stroke-width:7px;}.b{fill:#301313;}</style></defs><polygon class="a" points="40.74 43.26 126.3 94.48 126.3 195.1 97.78 211.57 10.64 161.26 10.64 60.64 40.74 43.26"/><polygon class="a" points="184.92 60.64 184.92 94.22 156.74 76.91 72.07 25.18 97.78 10.33 184.92 60.64"/><polygon class="a" points="166.86 117.85 184.92 122.11 184.92 161.26 156.74 177.53 156.74 112.02 166.86 117.85"/><line class="a" x1="184.92" y1="60.64" x2="156.74" y2="76.91"/><polyline class="a" points="126.3 94.48 97.78 110.95 10.64 60.64"/><line class="a" x1="97.79" y1="211.57" x2="97.79" y2="110.95"/><polygon class="b" points="156.74 112.02 156.74 177.53 126.3 195.1 126.3 94.48 156.74 112.02"/><polygon class="b" points="156.74 76.91 126.3 94.48 40.74 43.26 72.06 25.18 72.07 25.18 156.74 76.91"/><polygon class="a" points="72.06 25.18 40.74 43.26 10.64 25.18 4.57 12.26 20.17 3.81 39.22 10.33 72.06 25.18"/><line class="a" x1="20.17" y1="119.18" x2="20.17" y2="137.71"/><line class="a" x1="80.9" y1="150.41" x2="80.9" y2="169.28"/><polygon class="a" points="200.98 104.09 200.98 117.85 185.91 122.34 184.92 122.11 166.86 117.85 156.74 112.02 126.3 94.48 156.74 76.91 184.92 94.22 200.98 104.09"/><line class="a" x1="141.52" y1="85.69" x2="174.49" y2="104.96"/><line class="a" x1="57" y1="33.87" x2="25.03" y2="16.83"/><polyline class="a" points="40.74 142.69 44.92 158.13 51.93 149.24"/></svg>