<?xml version="1.0" encoding="utf-8"?>
<!-- Generator: Adobe Illustrator 25.2.1, SVG Export Plug-In . SVG Version: 6.00 Build 0)  -->
<svg version="1.1" id="Layer_1" xmlns="http://www.w3.org/2000/svg" xmlns:xlink="http://www.w3.org/1999/xlink" x="0px" y="0px"
	 viewBox="0 0 386 380" style="enable-background:new 0 0 386 380;" xml:space="preserve">
<style type="text/css">
	.st0{display:none;fill:none;}
	.st1{display:none;}
	.st2{display:none;fill-rule:evenodd;clip-rule:evenodd;}
	.st3{fill:#FFFFFF;}
	.st4{fill:#28B2FF;}
	.st5{fill-rule:evenodd;clip-rule:evenodd;fill:#FFFFFF;}
	.st6{fill-rule:evenodd;clip-rule:evenodd;fill:#28B2FF;}
	.st7{filter:url(#Adobe_OpacityMaskFilter);}
	.st8{fill-rule:evenodd;clip-rule:evenodd;}
	.st9{display:none;mask:url(#mask0_1_);}
	.st10{display:inline;fill:url(#SVGID_1_);}
</style>
<rect x="-31" class="st0" width="1376" height="400"/>
<rect x="573" y="132" class="st1" width="36" height="126"/>
<path class="st2" d="M536.5,260c37.5,0,64.5-32.2,64.5-65c0-31-26.8-65-64.5-65c-36.1,0-63.5,29.1-63.5,65
	C473,230.9,500.4,260,536.5,260z M540.4,227.1c18.5,0,32.6-13.8,32.6-32.1s-14.1-32.1-32.6-32.1c-18.5,0-32.8,14.4-32.8,32.1
	S521.9,227.1,540.4,227.1z"/>
<path class="st2" d="M753.6,167.1l-33,15.3c-4.2-9.5-13.1-17.1-25.1-17.1c-17,0-30.3,13.3-30.3,29.6s13.2,29.6,30.3,29.6
	c12.3,0,21.3-6.9,25.3-16.8l32.9,15.5C743.7,245,722,260,695,260c-36.4,0-65-29.1-65-65s29.9-65,65-65
	C720.4,130,743,145.2,753.6,167.1z"/>
<rect x="774" y="132" class="st1" width="36" height="126"/>
<path class="st1" d="M854,181l36-3v80h-36V181z"/>
<path class="st1" d="M934,181l36-3v80h-36V181z"/>
<path class="st1" d="M842.3,130c31.9,0,47.7,24.4,47.7,50l-36,6.7c0-11.1-10-21-22-21S810,176,810,188l-9.5-13.5
	C796.7,165.7,810.3,130,842.3,130z"/>
<path class="st1" d="M922.3,130c31.9,0,47.7,24.4,47.7,50l-36,6.7c0-11.1-10-21-22-21S890,176,890,188l-9.5-13.5
	C876.7,165.7,890.3,130,922.3,130z"/>
<path class="st1" d="M922.3,130c31.9,0,47.7,24.4,47.7,50l-36,3c0-11.1-10-20-22-20s-22,8-22,20l-18-19C880,146,890.3,130,922.3,130
	z"/>
<ellipse transform="matrix(0.2298 -0.9732 0.9732 0.2298 561.6677 1178.6056)" class="st1" cx="1025.4" cy="234.5" rx="23.5" ry="23.5"/>
<g>
	<path class="st3" d="M164.7,279.6c0,10.2-8.3,14.8-18.6,14.8c-10.3,0-18.6-4.5-18.6-14.8c0-9.2,3.9-0.6,18.6-0.6
		S164.7,270.9,164.7,279.6z"/>
	<path class="st4" d="M249.6,48.9l86.9,86.9c31.2,31.2,31.2,81.9,0,113.1l-86.9,86.9c-31.2,31.2-81.9,31.2-113.1,0l-86.9-86.9
		c-31.2-31.2-31.2-81.9,0-113.1l86.9-86.9C167.7,17.7,218.3,17.7,249.6,48.9z"/>
	<path class="st5" d="M154.5,181.6c0,2.5-2.1,4.5-4.6,4.5c-2.6,0-4.6-2.1-4.6-4.6h0v41.6h0l0,0c0-2.6,2.1-4.6,4.6-4.6
		c2.5,0,4.6,2,4.6,4.6V181.6z"/>
	<path class="st5" d="M240.7,167.7c0,2.6-2.1,4.6-4.6,4.6c-2.6,0-4.6-2.1-4.6-4.6v41.6c0-2.5,2.1-4.6,4.6-4.6c2.6,0,4.6,2.1,4.6,4.6
		l0,0l0,0V167.7z"/>
	<path class="st5" d="M197.6,157c-0.1,2.5-2.1,4.5-4.6,4.5c-2.6,0-4.6-2.1-4.6-4.6l0,0h0v75.5l0,0c0-2.6,2.1-4.6,4.6-4.6
		c2.5,0,4.6,2.1,4.6,4.6V157z"/>
	<path class="st3" d="M128.3,156.9L128.3,156.9c9.4,0,16.9,7.6,16.9,16.9v49.3c0,9.4-7.6,16.9-16.9,16.9l0,0
		c-9.4,0-16.9-7.6-16.9-16.9v-49.3C111.4,164.5,118.9,156.9,128.3,156.9z"/>
	<path class="st3" d="M171.4,118.4L171.4,118.4c9.4,0,16.9,7.6,16.9,16.9v120.1c0,9.4-7.6,16.9-16.9,16.9l0,0
		c-9.4,0-16.9-7.6-16.9-16.9V135.3C154.5,126,162.1,118.4,171.4,118.4z"/>
	<path class="st3" d="M257.7,233.9L257.7,233.9c-9.4,0-16.9-7.6-16.9-16.9v-49.3c0-9.4,7.6-16.9,16.9-16.9l0,0
		c9.4,0,16.9,7.6,16.9,16.9v49.3C274.6,226.3,267,233.9,257.7,233.9z"/>
	<path class="st3" d="M214.5,272.4L214.5,272.4c-9.4,0-16.9-7.6-16.9-16.9V135.3c0-9.4,7.6-16.9,16.9-16.9l0,0
		c9.4,0,16.9,7.6,16.9,16.9v120.1C231.5,264.8,223.9,272.4,214.5,272.4z"/>
	<path class="st6" d="M214.5,127.6c-4.3,0-7.7,3.4-7.7,7.7c0,3.1,1.8,5.7,4.4,6.9v31.2c0,10.1-8.2,18.2-18.2,18.2
		c-11.3,0-20.9,7.6-23.9,17.9c-4.6-5.5-11.5-9.1-19.2-9.1c-10.1,0-18.2-8.2-18.2-18.2v-1.5c2.6-1.2,4.4-3.9,4.4-6.9
		c0-4.3-3.4-7.7-7.7-7.7c-4.3,0-7.7,3.4-7.7,7.7c0,3.1,1.8,5.7,4.4,6.9v1.5c0,13.7,11.1,24.9,24.9,24.9c10.1,0,18.2,8.1,18.2,18.2
		v23.1c-2.6,1.2-4.4,3.9-4.4,7c0,4.3,3.4,7.7,7.7,7.7c4.3,0,7.7-3.4,7.7-7.7c0-3.1-1.8-5.7-4.4-7v-23.1c0,0,0-0.1,0-0.1v-8.8
		c0-10.1,8.2-18.2,18.2-18.2c11.5,0,21.2-7.9,24.1-18.5c4.6,5.4,11.4,8.9,19.1,8.9c10.1,0,18.2,8.2,18.2,18.2v3.1
		c-2.6,1.2-4.4,3.9-4.4,6.9c0,4.3,3.4,7.7,7.7,7.7c4.3,0,7.7-3.4,7.7-7.7c0-3.1-1.8-5.7-4.4-6.9v-3.1c0-13.7-11.1-24.9-24.9-24.9
		c-10.1,0-18.2-8.2-18.2-18.2v-21.5c2.6-1.2,4.4-3.9,4.4-7C222.2,131.1,218.8,127.6,214.5,127.6z"/>
</g>
<defs>
	<filter id="Adobe_OpacityMaskFilter" filterUnits="userSpaceOnUse" x="1068" y="30" width="226" height="273">
		<feColorMatrix  type="matrix" values="1 0 0 0 0  0 1 0 0 0  0 0 1 0 0  0 0 0 1 0"/>
	</filter>
</defs>
<mask maskUnits="userSpaceOnUse" x="1068" y="30" width="226" height="273" id="mask0_1_">
	<rect x="1181" y="132" class="st7" width="36" height="126"/>
	<path class="st8" d="M1144.4,260c37.5,0,64.5-32.2,64.5-65c0-31-26.8-65-64.5-65c-36.1,0-63.4,29.1-63.4,65
		C1081,230.9,1108.4,260,1144.4,260z M1148.4,227.1c18.5,0,32.6-13.8,32.6-32.1s-14.1-32.1-32.6-32.1c-18.5,0-32.8,14.4-32.8,32.1
		S1129.9,227.1,1148.4,227.1z"/>
	<rect x="1245" y="132" width="36" height="126.3"/>
	<circle cx="1263" cy="92" r="22"/>
</mask>
<g class="st9">
	
		<linearGradient id="SVGID_1_" gradientUnits="userSpaceOnUse" x1="1057.6672" y1="87.6486" x2="1280.9673" y2="123.5906" gradientTransform="matrix(1 0 0 -1 0 274)">
		<stop  offset="0" style="stop-color:#28B2FF"/>
		<stop  offset="1" style="stop-color:#2EE5FF"/>
	</linearGradient>
	<rect x="1068" y="30" class="st10" width="226" height="273"/>
</g>
</svg>
