<svg width="145" height="145" viewBox="0 0 145 145" fill="none" xmlns="http://www.w3.org/2000/svg">
<g clip-path="url(#clip0_2_6)">
<path d="M3.05176e-05 36.7697V108.234C-0.00317383 113.063 0.945724 117.846 2.79243 122.308C4.63916 126.771 7.34749 130.825 10.7625 134.24C14.1774 137.655 18.2321 140.363 22.6945 142.209C27.1569 144.055 31.9396 145.004 36.7689 145H108.231C113.06 145.001 117.841 144.051 122.302 142.203C126.763 140.356 130.817 137.648 134.231 134.234C137.646 130.819 140.354 126.766 142.202 122.305C144.05 117.844 145 113.062 145 108.234V36.7697C145 31.9409 144.05 27.1593 142.202 22.698C140.354 18.2367 137.646 14.1831 134.232 10.7686C130.817 7.3541 126.764 4.64568 122.303 2.798C117.841 0.950306 113.06 -0.000458345 108.231 -1.74297e-06H36.7689C27.0172 -1.74297e-06 17.6649 3.87394 10.7694 10.7696C3.87389 17.6653 3.05176e-05 27.0178 3.05176e-05 36.7697Z" fill="#0D2338"/>
<path d="M23.3051 116.518C23.3816 116.275 23.4685 116.043 23.5658 115.823C23.4352 116.036 23.3467 116.272 23.3051 116.518Z" fill="#59CA3B"/>
<path d="M19.4221 73.536C20.1973 84.6604 24.0804 93.2158 29.0028 99.1708C29.0028 99.1708 22.7872 106.937 27.7062 111.081C27.7062 111.081 24.8104 112.864 23.5659 115.809C23.9344 115.173 24.8243 114.383 26.931 114.707C26.931 114.707 24.8452 117.036 26.6702 121.955C26.6702 121.955 21.2333 124.041 24.0804 133.079C25.2765 136.815 26.7093 140.47 28.3701 144.023C31.1232 144.667 33.9414 144.992 36.7689 144.99H108.231C114.164 144.994 120.01 143.561 125.268 140.813C130.526 138.065 135.04 134.084 138.423 129.21C136.337 122.334 133.083 117.429 129.464 114.436C129.464 114.436 128.686 95.7952 119.109 88.8042V85.4356L117.294 83.8852C117.294 83.8852 120.92 53.0705 91.9169 42.1963C91.9169 42.1963 85.444 33.9086 68.3545 34.9446C57.9812 35.5738 49.3253 36.2969 42.1536 40.5937C41.4213 41.0318 40.7017 41.5115 39.9949 42.033C37.29 44.0506 34.9403 46.505 33.0423 49.2951C32.347 50.3033 31.6518 51.381 30.9982 52.549C30.6645 53.1331 30.3366 53.7379 30.0144 54.3637C30.0144 54.3637 18.6538 62.3907 19.4221 73.536Z" fill="#59CA3B"/>
<path d="M31.019 52.5594C31.2117 54.7434 31.5756 56.9089 32.1071 59.036C32.1071 59.036 42.4665 99.6888 33.661 53.3416C33.4038 51.9812 33.2044 50.6359 33.0631 49.3056C30.8939 28.8644 41.9972 11.6181 52.2175 -1.90735e-06H45.6369C34.7734 14.8824 29.5416 36.8601 31.019 52.5594Z" fill="#59CA3B"/>
<path d="M39.0979 47.1259C39.0979 47.1259 39.0979 92.4371 41.9485 42.982C41.9949 42.1755 42.0644 41.3829 42.1571 40.6042C45.1641 15.0319 71.9942 4.49844 89.8798 -1.90735e-06H73.927C54.3207 7.99568 43.4607 26.7855 40.0018 42.0434C39.602 43.792 39.3031 45.492 39.0979 47.1259Z" fill="#59CA3B"/>
<path d="M81.3037 68.3596C76.1241 66.5449 74.5736 58 75.6061 56.4461C76.6386 54.8921 80.0106 55.6708 81.3037 61.1079C82.5969 66.545 81.3037 68.3596 81.3037 68.3596Z" fill="#0D2338"/>
<path d="M29.778 92.3954C25.377 90.3686 24.0803 80.527 25.6342 82.3417C27.1881 84.1563 27.1882 85.752 28.4848 89.0719L29.778 92.3954Z" fill="#0D2338"/>
<path d="M67.7843 106.68C52.0471 106.423 45.3135 105.035 40.6692 92.3953C36.0249 79.7552 50.5106 67.0629 57.2407 72.5C63.9709 77.9371 62.4204 96.3236 62.4204 96.3236L67.7843 106.68Z" fill="#DF9E5D"/>
<path d="M58.2593 78.455C61.3671 67.0629 61.8851 66.4129 58.2593 66.0895C54.6335 65.7662 49.1966 61.1079 41.4306 74.3147C33.6645 87.5214 40.3877 75.5279 40.3877 75.5279C40.3877 75.5279 31.8429 77.9371 32.6181 83.6348C33.3934 89.3326 29.778 91.6618 37.0295 89.8541C44.2811 88.0464 41.6878 89.5934 43.7597 83.6383C46.6556 82.9327 49.5965 82.4263 52.5617 82.1226C57.7414 81.5629 58.2593 78.455 58.2593 78.455Z" fill="#9EC7DF"/>
</g>
<defs>
<clipPath id="clip0_2_6">
<rect width="145" height="145" fill="white" transform="matrix(-1 0 0 1 145 0)"/>
</clipPath>
</defs>
</svg>
